<?xml version="1.0" standalone="no"?>
<!DOCTYPE svg PUBLIC "-//W3C//DTD SVG 20010904//EN"
 "http://www.w3.org/TR/2001/REC-SVG-20010904/DTD/svg10.dtd">
<svg version="1.0" xmlns="http://www.w3.org/2000/svg"
 width="500.000000pt" height="500.000000pt" viewBox="0 0 500.000000 500.000000"
 preserveAspectRatio="xMidYMid meet">
<metadata>
Created by potrace 1.11, written by Peter Selinger 2001-2013
</metadata>
<g transform="translate(0.000000,500.000000) scale(0.100000,-0.100000)"
fill="#000000" stroke="none">
<path d="M2365 4469 c-181 -20 -385 -94 -546 -198 -127 -82 -288 -243 -369
-369 -87 -136 -160 -307 -180 -422 -5 -30 -12 -68 -16 -85 -8 -36 -9 -309 -1
-345 69 -333 174 -530 391 -737 183 -176 410 -291 656 -334 104 -18 316 -16
420 4 487 95 871 456 999 940 72 272 37 587 -95 849 -87 173 -245 358 -401
469 -90 64 -253 146 -352 178 -143 46 -355 67 -506 50z m323 -550 c316 -83
535 -369 535 -699 0 -403 -320 -723 -723 -723 -403 0 -723 320 -723 723 0 210
82 395 238 538 179 164 433 225 673 161z"/>
<path d="M2391 3724 c-324 -70 -523 -413 -417 -719 28 -79 71 -146 138 -215
195 -201 503 -221 725 -47 187 147 264 389 192 605 -27 82 -107 201 -167 249
-26 21 -53 44 -60 51 -7 6 -20 12 -28 12 -8 0 -14 4 -14 9 0 16 -165 62 -236
65 -38 3 -98 -2 -133 -10z m281 -131 c88 -41 160 -113 201 -201 30 -62 32 -75
32 -172 0 -97 -2 -110 -31 -171 -40 -84 -114 -158 -201 -201 -64 -31 -74 -33
-173 -33 -97 0 -110 2 -171 31 -84 40 -158 114 -201 201 -31 64 -33 74 -33
173 0 97 2 110 32 172 51 108 140 185 258 225 25 8 75 12 130 10 77 -2 100 -7
157 -34z"/>
</g>
</svg>
