<svg width="136" height="136" viewBox="0 0 136 136" xmlns="http://www.w3.org/2000/svg">
<path fill-rule="evenodd" clip-rule="evenodd" d="M24 31.5C24 28.4624 26.4624 26 29.5 26H107.5C110.538 26 113 28.4624 113 31.5V82.5C113 85.5376 110.538 88 107.5 88H73.9646C73.9879 88.1633 74 88.3302 74 88.5V98.5C74 98.6698 73.9879 98.8367 73.9646 99H89.5C91.433 99 93 100.567 93 102.5V105.5C93 105.67 92.9879 105.837 92.9646 106H93V107.5V109.5V111H91.5H45.5H44V109.5V107.5V106H44.0354C44.0121 105.837 44 105.67 44 105.5V102.5C44 100.567 45.567 99 47.5 99H63.0354C63.0121 98.8367 63 98.6698 63 98.5V88.5C63 88.3302 63.0121 88.1633 63.0354 88H29.5C26.4624 88 24 85.5376 24 82.5V31.5ZM47.5 106H89.5C89.7761 106 90 105.776 90 105.5V102.5C90 102.224 89.7761 102 89.5 102H70.5H66.5H47.5C47.2239 102 47 102.224 47 102.5V105.5C47 105.776 47.2239 106 47.5 106ZM71 98.5C71 98.7761 70.7761 99 70.5 99H66.5C66.2239 99 66 98.7761 66 98.5V88.5C66 88.2239 66.2239 88 66.5 88H70.5C70.7761 88 71 88.2239 71 88.5V98.5ZM66.5 85H70.5H107.5C108.881 85 110 83.8807 110 82.5V31.5C110 30.1193 108.881 29 107.5 29H29.5C28.1193 29 27 30.1193 27 31.5V82.5C27 83.8807 28.1193 85 29.5 85H66.5ZM32.5 37.5C32.5 35.567 34.067 34 36 34H101C102.933 34 104.5 35.567 104.5 37.5V76.5C104.5 78.433 102.933 80 101 80H36C34.067 80 32.5 78.433 32.5 76.5V37.5ZM36 37C35.7239 37 35.5 37.2239 35.5 37.5V76.5C35.5 76.7761 35.7239 77 36 77H101C101.276 77 101.5 76.7761 101.5 76.5V37.5C101.5 37.2239 101.276 37 101 37H36Z"/>
</svg>
