<svg width="136" height="136" viewBox="0 0 136 136" xmlns="http://www.w3.org/2000/svg">
<path fill-rule="evenodd" clip-rule="evenodd" d="M29.2869 64.2609C21.6242 55.9223 22.1722 42.9506 30.5108 35.2878C38.8495 27.6251 51.8212 28.1731 59.4839 36.5117C67.1467 44.8504 66.5987 57.8221 58.26 65.4848C49.9214 73.1476 36.9497 72.5996 29.2869 64.2609ZM28.5506 64.9376C20.5142 56.1922 21.0889 42.5879 29.8342 34.5515C38.5795 26.5151 52.1838 27.0898 60.2202 35.8351C68.2567 44.5804 67.682 58.1847 58.9367 66.2212C50.1913 74.2576 36.587 73.6829 28.5506 64.9376ZM57.9781 64.4459L31.5213 35.6553L30.785 36.3319L57.2418 65.1225L57.9781 64.4459Z"/>
<path d="M31.5213 35.6553L32.2576 34.9787L31.581 34.2423L30.8447 34.919L31.5213 35.6553ZM57.9781 64.4459L58.6547 65.1822L59.391 64.5056L58.7144 63.7692L57.9781 64.4459ZM30.785 36.3319L30.1083 35.5956L29.372 36.2722L30.0487 37.0086L30.785 36.3319ZM57.2418 65.1225L56.5055 65.7991L57.1821 66.5355L57.9184 65.8588L57.2418 65.1225ZM29.8342 34.5515C21.0889 42.5879 20.5142 56.1922 28.5506 64.9376L30.0233 63.5843C22.7342 55.6523 23.2555 43.3132 31.1875 36.0242L29.8342 34.5515ZM60.2202 35.8351C52.1838 27.0898 38.5795 26.5151 29.8342 34.5515L31.1875 36.0242C39.1195 28.7351 51.4586 29.2564 58.7476 37.1884L60.2202 35.8351ZM58.9367 66.2212C67.682 58.1847 68.2567 44.5804 60.2202 35.8351L58.7476 37.1884C66.0366 45.1204 65.5154 57.4595 57.5834 64.7485L58.9367 66.2212ZM28.5506 64.9376C36.587 73.6829 50.1913 74.2576 58.9367 66.2212L57.5834 64.7485C49.6514 72.0376 37.3123 71.5163 30.0233 63.5843L28.5506 64.9376ZM29.1576 33.8152C20.0056 42.2253 19.4042 56.4622 27.8143 65.6142L29.2869 64.2609C21.6242 55.9223 22.1722 42.9506 30.5108 35.2878L29.1576 33.8152ZM60.9566 35.1585C52.5464 26.0065 38.3095 25.4051 29.1576 33.8152L30.5108 35.2878C38.8495 27.6251 51.8212 28.1731 59.4839 36.5117L60.9566 35.1585ZM59.6133 66.9575C68.7653 58.5474 69.3667 44.3105 60.9566 35.1585L59.4839 36.5117C67.1467 44.8504 66.5987 57.8221 58.26 65.4848L59.6133 66.9575ZM27.8143 65.6142C36.2244 74.7662 50.4613 75.3676 59.6133 66.9575L58.26 65.4848C49.9214 73.1476 36.9497 72.5996 29.2869 64.2609L27.8143 65.6142ZM30.785 36.3319L57.2418 65.1225L58.7144 63.7692L32.2576 34.9787L30.785 36.3319ZM31.4616 37.0682L32.1979 36.3916L30.8447 34.919L30.1083 35.5956L31.4616 37.0682ZM57.9781 64.4459L31.5213 35.6553L30.0487 37.0086L56.5055 65.7991L57.9781 64.4459ZM57.3015 63.7096L56.5651 64.3862L57.9184 65.8588L58.6547 65.1822L57.3015 63.7096Z"/>
<path fill-rule="evenodd" clip-rule="evenodd" d="M86.7446 103.544L98.6802 91.6089L98.676 91.6047L110.605 79.6755C117.197 73.0837 117.197 62.3962 110.605 55.8044C104.013 49.2126 93.3258 49.2125 86.734 55.8044L62.8628 79.6755C56.271 86.2674 56.271 96.9549 62.8629 103.547C67.0569 107.741 72.909 109.266 78.3092 108.123C81.4004 107.471 84.3441 105.945 86.7446 103.544ZM97.9689 90.8976L75.5119 68.4407L87.4411 56.5115C93.6424 50.3102 103.697 50.3102 109.898 56.5115C116.099 62.7128 116.099 72.7671 109.898 78.9684L97.9689 90.8976Z"/>
<path d="M98.6802 91.6089L99.3873 92.316L100.094 91.6089L99.3873 90.9018L98.6802 91.6089ZM86.7446 103.544L87.4517 104.252L86.7446 103.544ZM98.676 91.6047L97.9689 90.8976L97.2618 91.6047L97.9689 92.3118L98.676 91.6047ZM78.3092 108.123L78.1028 107.145L78.1022 107.145L78.3092 108.123ZM75.5119 68.4407L74.8048 67.7336L74.0977 68.4407L74.8048 69.1478L75.5119 68.4407ZM97.9689 90.8976L97.2618 91.6047L97.9689 92.3118L98.676 91.6047L97.9689 90.8976ZM87.4411 56.5115L86.734 55.8044L87.4411 56.5115ZM97.9731 90.9018L86.0375 102.837L87.4517 104.252L99.3873 92.316L97.9731 90.9018ZM97.9689 92.3118L97.9731 92.316L99.3873 90.9018L99.3831 90.8976L97.9689 92.3118ZM99.3831 92.3118L111.312 80.3827L109.898 78.9684L97.9689 90.8976L99.3831 92.3118ZM111.312 80.3827C118.295 73.4003 118.295 62.0796 111.312 55.0973L109.898 56.5115C116.099 62.7128 116.099 72.7671 109.898 78.9684L111.312 80.3827ZM111.312 55.0973C104.33 48.1149 93.0093 48.1149 86.0269 55.0973L87.4411 56.5115C93.6424 50.3102 103.697 50.3102 109.898 56.5115L111.312 55.0973ZM86.0269 55.0973L62.1557 78.9684L63.57 80.3827L87.4411 56.5115L86.0269 55.0973ZM62.1557 78.9684C55.1734 85.9508 55.1734 97.2715 62.1557 104.254L63.57 102.84C57.3686 96.6383 57.3686 86.584 63.57 80.3827L62.1557 78.9684ZM62.1557 104.254C66.599 108.697 72.7991 110.312 78.5163 109.102L78.1022 107.145C73.0189 108.221 67.5148 106.784 63.57 102.84L62.1557 104.254ZM86.0375 102.837C83.7781 105.097 81.0101 106.532 78.1028 107.145L78.5156 109.102C81.7908 108.411 84.91 106.793 87.4517 104.252L86.0375 102.837ZM74.8048 69.1478L97.2618 91.6047L98.676 90.1905L76.219 67.7336L74.8048 69.1478ZM86.734 55.8044L74.8048 67.7336L76.219 69.1478L88.1482 57.2186L86.734 55.8044ZM110.605 55.8044C104.013 49.2126 93.3258 49.2125 86.734 55.8044L88.1482 57.2186C93.959 51.4078 103.38 51.4078 109.191 57.2186L110.605 55.8044ZM110.605 79.6755C117.197 73.0837 117.197 62.3962 110.605 55.8044L109.191 57.2186C115.002 63.0294 115.002 72.4505 109.191 78.2613L110.605 79.6755ZM98.676 91.6047L110.605 79.6755L109.191 78.2613L97.2618 90.1905L98.676 91.6047Z"/>
</svg>
