<svg width="136" height="136" viewBox="0 0 136 136" xmlns="http://www.w3.org/2000/svg">
<path d="M23.7302 73.8453C22.7749 73.8453 21.9998 73.0708 21.9998 72.1149V63.2707C21.9998 62.3148 22.7749 61.5403 23.7302 61.5403H45.6664C47.0296 51.1479 55.6239 43.019 66.2222 42.3765V37.3146H49.1096C48.1543 37.3146 47.3792 36.5401 47.3792 35.5842V23.7304C47.3792 22.7745 48.1543 22 49.1096 22H67.952C68.9079 22 69.6824 22.7745 69.6824 23.7304V35.5842V42.4159C79.9267 43.394 88.1375 51.399 89.4677 61.5403H111.404C112.36 61.5403 113.135 62.3148 113.135 63.2707V72.1149C113.135 73.0708 112.36 73.8453 111.404 73.8453H106.598V101.628H111.404C112.36 101.628 113.135 102.403 113.135 103.359V112.203C113.135 113.159 112.36 113.933 111.404 113.933H23.7302C22.7749 113.933 21.9998 113.159 21.9998 112.203V103.359C21.9998 102.403 22.7749 101.628 23.7302 101.628H27.5752V73.8453H23.7302ZM66.221 25.4608H50.84V33.8538H66.221V25.4608ZM67.5673 45.7746C58.2672 45.7746 50.557 52.625 49.1634 61.5403H85.9706C84.577 52.625 76.8674 45.7746 67.5673 45.7746ZM109.674 65.0011H89.572H86.323H48.811H45.5621H25.4606V70.3845H109.674V65.0011ZM52.7631 101.628V73.8453H43.63V101.628H52.7631ZM65.357 101.628V73.8453H56.2239V101.628H65.357ZM77.9498 101.628V73.8453H68.8172V101.628H77.9498ZM90.5431 101.628V73.8453H81.4106V101.628H90.5431ZM103.137 73.8453H94.0039V101.628H103.137V73.8453ZM25.4606 110.472H109.674V105.089H25.4606V110.472ZM31.036 101.628H40.1691V73.8453H31.036V101.628Z"/>
</svg>
