<svg width="136" height="136" viewBox="0 0 136 136" xmlns="http://www.w3.org/2000/svg">
<path d="M93.789 102.932C93.3451 102.932 92.9214 102.69 92.6995 102.267C92.3969 101.663 92.6592 100.937 93.2442 100.655C93.7284 100.414 95.8065 99.3459 96.2705 99.084C105.067 94.0879 110.534 84.7002 110.534 74.6074C110.534 62.7217 103.009 52.0649 91.8118 48.0963C91.6908 48.056 91.4689 47.9754 91.2469 47.8948C90.7022 47.6934 89.875 47.4113 89.5321 47.3106C88.8865 47.1293 88.5233 46.4645 88.7049 45.8198C88.8865 45.1752 89.5522 44.8126 90.1978 44.9939C90.6013 45.1148 91.4083 45.3968 92.0539 45.6184C92.2758 45.699 92.4776 45.7594 92.6188 45.8198C104.784 50.1511 112.955 61.7346 112.955 74.6276C112.955 85.6068 107.024 95.8003 97.4406 101.219C96.9161 101.501 94.7775 102.609 94.2933 102.851C94.1521 102.891 93.9705 102.932 93.789 102.932Z" />
<path d="M92.0888 97.7876C91.6449 97.7876 91.2213 97.5459 90.9993 97.1228C90.6967 96.5185 90.9388 95.7932 91.5441 95.5112C99.6342 91.5023 104.678 83.4039 104.678 74.3788C104.678 65.2731 99.3518 56.8927 91.1002 53.0248C90.9792 52.9845 90.4546 52.8032 90.1318 52.7025C89.6476 52.5413 89.3652 52.4607 89.1836 52.4003C88.5582 52.1384 88.2757 51.4333 88.5178 50.829C88.7801 50.2045 89.4862 49.9224 90.0915 50.1642C90.1923 50.2045 90.5555 50.3253 90.8379 50.4059C91.5441 50.6275 91.9072 50.7484 92.109 50.8491C96.5273 52.9241 100.26 56.1876 102.903 60.2771C105.626 64.4875 107.079 69.3626 107.079 74.3989C107.079 79.3345 105.687 84.1291 103.064 88.279C100.502 92.3282 96.8904 95.5716 92.6133 97.6869C92.4519 97.7473 92.2704 97.7876 92.0888 97.7876Z"/>
<path d="M80.8335 59.0575H62.898C62.2322 59.0575 61.6875 58.5136 61.6875 57.8488V57.2847C61.6875 57.184 61.7077 57.0833 61.7278 56.9624L66.5093 39.154C66.6505 38.6302 67.1347 38.2676 67.6795 38.2676H80.8335C86.5632 38.2676 91.2438 42.9211 91.2438 48.6625C91.2438 54.3838 86.5834 59.0575 80.8335 59.0575ZM64.3304 56.6401H80.8335C85.2316 56.6401 88.8228 53.0542 88.8228 48.6625C88.8228 44.2709 85.2316 40.685 80.8335 40.685H68.6075L64.3304 56.6401Z"/>
<path d="M57.067 80.2675C56.9661 80.2675 56.8652 80.2473 56.7442 80.2272L32.1913 73.6397C31.5457 73.4584 31.1624 72.8137 31.3439 72.1691C32.4737 67.9184 33.2202 65.1988 33.9667 62.3986C35.5807 56.3953 37.2754 50.0496 43.3278 27.4869C43.5094 26.8422 44.155 26.4594 44.8006 26.6408L69.3535 33.2081C69.9991 33.3894 70.3824 34.0341 70.2008 34.6787L58.2169 79.361C58.1362 79.6631 57.9345 79.925 57.652 80.0862C57.4704 80.2071 57.2687 80.2675 57.067 80.2675ZM33.9869 71.6252L56.1994 77.568L67.5579 35.2226L45.3453 29.2798C39.535 50.8957 37.8806 57.1206 36.2868 63.0231C35.621 65.5614 34.9553 68.0192 33.9869 71.6252Z"/>
<path d="M48.7072 87.2934C48.6064 87.2934 48.5055 87.2733 48.3844 87.2531L35.876 83.909C35.5734 83.8284 35.3111 83.627 35.1497 83.3449C34.9883 83.0629 34.9479 82.7406 35.0286 82.4182L37.3487 73.7759C37.5303 73.1313 38.1759 72.7485 38.8215 72.9298L51.33 76.2739C51.6326 76.3545 51.8949 76.556 52.0563 76.838C52.2177 77.12 52.258 77.4424 52.1773 77.7647L49.8774 86.3869C49.7362 86.9308 49.2318 87.2934 48.7072 87.2934ZM37.6917 81.8743L47.8599 84.5939L49.5546 78.2885L39.3864 75.5688L37.6917 81.8743Z" />
<path d="M44.3791 92.9343C44.2782 92.9343 44.1773 92.9142 44.0563 92.894L36.8135 90.9601C36.5109 90.8795 36.2486 90.678 36.0872 90.396C35.9258 90.114 35.8854 89.7917 35.9661 89.4693L37.681 83.1236C37.8626 82.4789 38.5082 82.0962 39.1538 82.2775L46.3966 84.2114C46.6992 84.292 46.9816 84.4935 47.1229 84.7755C47.2843 85.0575 47.3246 85.3798 47.2439 85.7022L45.529 92.0479C45.4483 92.3501 45.2466 92.612 44.9641 92.7732C44.7826 92.8739 44.5808 92.9343 44.3791 92.9343ZM38.609 88.9254L43.5116 90.2349L44.601 86.2259L39.6985 84.9165L38.609 88.9254Z"/>
<path d="M63.5027 34.1056C63.4018 34.1056 63.3009 34.0855 63.1799 34.0653L49.703 30.4593C49.0574 30.278 48.6741 29.6334 48.8557 28.9887L51.0346 20.8903C51.1153 20.5881 51.317 20.3262 51.5995 20.1651C51.8819 20.0039 52.2047 19.9636 52.5275 20.0442L66.0245 23.6502C66.3271 23.7308 66.5894 23.9322 66.7508 24.2143C66.9122 24.4963 66.9526 24.8186 66.8719 25.141L64.6728 33.1991C64.5921 33.5012 64.3904 33.7631 64.1079 33.9243C63.9263 34.0452 63.7246 34.1056 63.5027 34.1056ZM51.4986 28.4246L62.6351 31.4061L64.1886 25.6446L53.0319 22.6631L51.4986 28.4246Z"/>
<path d="M69.3581 26.9823C69.2572 26.9823 69.1563 26.9621 69.0353 26.942L48.2147 21.3618C47.5691 21.1805 47.1858 20.5358 47.3674 19.8912C47.549 19.2465 48.1946 18.8637 48.8402 19.0451L69.6809 24.6253C70.3265 24.8066 70.7098 25.4513 70.5282 26.0959C70.387 26.6398 69.9028 26.9823 69.3581 26.9823Z" />
<path d="M65.0183 107.227C64.8973 107.227 64.7561 107.207 64.635 107.167C64.0096 106.965 63.6666 106.28 63.8684 105.636L69.7998 87.8474C69.9612 87.3438 70.4252 87.0215 70.9498 87.0215L88.5423 87.1222C89.0467 87.1222 89.4905 87.4244 89.6721 87.8877L96.471 105.354C96.7131 105.978 96.4105 106.683 95.7851 106.925C95.1597 107.167 94.4535 106.865 94.2114 106.24L87.6949 89.5396L71.7971 89.4389L66.128 106.401C66.0069 106.905 65.5227 107.227 65.0183 107.227Z"/>
<path d="M79.8134 101.67C77.2714 101.67 75.1934 99.5949 75.1934 97.0566C75.1934 94.5183 77.2714 92.4434 79.8134 92.4434C82.3555 92.4434 84.4133 94.5183 84.4133 97.0566C84.4133 99.5949 82.3555 101.67 79.8134 101.67ZM79.8134 94.8608C78.6029 94.8608 77.6143 95.8479 77.6143 97.0566C77.6143 98.2653 78.6029 99.2525 79.8134 99.2525C81.0239 99.2525 81.9923 98.2653 81.9923 97.0566C81.9923 95.8479 81.0239 94.8608 79.8134 94.8608Z"/>
<path d="M102.057 117.535H25.2105C24.5447 117.535 24 116.991 24 116.326V106.011C24 105.347 24.5447 104.803 25.2105 104.803H102.057C102.723 104.803 103.267 105.347 103.267 106.011V116.326C103.267 116.991 102.743 117.535 102.057 117.535ZM26.421 112.117H100.846V107.22H26.421V112.117Z" />
</svg>
